<?xml version="1.0" encoding="UTF-8" standalone="no"?>
<!-- Created with Inkscape (http://www.inkscape.org/) -->

<svg
   xmlns:dc="http://purl.org/dc/elements/1.1/"
   xmlns:cc="http://creativecommons.org/ns#"
   xmlns:rdf="http://www.w3.org/1999/02/22-rdf-syntax-ns#"
   xmlns:svg="http://www.w3.org/2000/svg"
   xmlns="http://www.w3.org/2000/svg"
   xmlns:sodipodi="http://sodipodi.sourceforge.net/DTD/sodipodi-0.dtd"
   xmlns:inkscape="http://www.inkscape.org/namespaces/inkscape"
   id="svg2"
   version="1.1"
   inkscape:version="0.91 r13725"
   xml:space="preserve"
   width="765"
   height="990"
   viewBox="0 0 765 990"
   sodipodi:docname="splash.svg"><metadata
     id="metadata8"><rdf:RDF><cc:Work
         rdf:about=""><dc:format>image/svg+xml</dc:format><dc:type
           rdf:resource="http://purl.org/dc/dcmitype/StillImage" /><dc:title /></cc:Work></rdf:RDF></metadata><defs
     id="defs6"><clipPath
       clipPathUnits="userSpaceOnUse"
       id="clipPath18"><path
         d="m 0,23 612,0 0,746 L 0,769 0,23 Z"
         id="path20"
         inkscape:connector-curvature="0" /></clipPath></defs><sodipodi:namedview
     pagecolor="#ffffff"
     bordercolor="#666666"
     borderopacity="1"
     objecttolerance="10"
     gridtolerance="10"
     guidetolerance="10"
     inkscape:pageopacity="0"
     inkscape:pageshadow="2"
     inkscape:window-width="1441"
     inkscape:window-height="849"
     id="namedview4"
     showgrid="false"
     inkscape:zoom="0.83972969"
     inkscape:cx="428.17166"
     inkscape:cy="482.04551"
     inkscape:window-x="0"
     inkscape:window-y="1"
     inkscape:window-maximized="0"
     inkscape:current-layer="g10" /><g
     id="g10"
     inkscape:groupmode="layer"
     inkscape:label="pd"
     transform="matrix(1.25,0,0,-1.25,0,990)"><g
       id="g12" /><g
       id="g22"
       transform="matrix(4.191781,0,0,4.191781,20.958892,-10.602757)"><path
         d="m 45,106 34,0 0,-17 -34,0 0,17"
         style="fill:none;stroke:#000000;stroke-width:1;stroke-linecap:butt;stroke-linejoin:round;stroke-miterlimit:10;stroke-dasharray:none;stroke-opacity:1"
         id="path24"
         inkscape:connector-curvature="0" /></g><g
       id="g26"
       transform="matrix(4.191781,0,0,4.191781,20.958892,-10.602757)"><path
         d="m 45,90 7,0 0,-1 -7,0 0,1 z m 0,16 7,0 0,-2 -7,0 0,2 z m 27,0 7,0 0,-2 -7,0 0,2 z"
         style="fill:none;stroke:#000000;stroke-width:1;stroke-linecap:square;stroke-linejoin:miter;stroke-miterlimit:10;stroke-dasharray:none;stroke-opacity:1"
         id="path28"
         inkscape:connector-curvature="0" /></g><g
       id="g30"
       transform="matrix(4.191781,0,0,4.191781,20.958892,-29.802757)"><text
         transform="matrix(1,0,0,-1,47,98.24)"
         style="font-variant:normal;font-weight:normal;font-size:10px;line-height:125%;font-family:Courier;-inkscape-font-specification:Courier;writing-mode:lr-tb;fill:#000000;fill-opacity:1;fill-rule:nonzero;stroke:none"
         id="text32"
         sodipodi:linespacing="125%"><tspan
           x="0 6 12 18 24"
           y="0"
           sodipodi:role="line"
           id="tspan34"
           style="font-style:normal;font-variant:normal;font-weight:normal;font-stretch:normal;font-size:10.00004482px;line-height:125%;font-family:'DejaVu Sans Mono';-inkscape-font-specification:'DejaVu Sans Mono, Normal';text-align:start;writing-mode:lr-tb;text-anchor:start">until</tspan></text>
</g><g
       id="g36"
       transform="matrix(4.191781,0,0,4.191781,20.958892,-10.602757)"><path
         d="m 45,150 32,0 -4,-4 0,-9 4,-4 -32,0 0,17"
         style="fill:none;stroke:#000000;stroke-width:1;stroke-linecap:butt;stroke-linejoin:round;stroke-miterlimit:10;stroke-dasharray:none;stroke-opacity:1"
         id="path38"
         inkscape:connector-curvature="0" /></g><g
       id="g40"
       transform="matrix(4.191781,0,0,4.191781,20.958892,-10.602757)"><path
         d="m 45,134 7,0 0,-1 -7,0 0,1 z m 0,16 7,0 0,-2 -7,0 0,2 z"
         style="fill:none;stroke:#000000;stroke-width:1;stroke-linecap:square;stroke-linejoin:miter;stroke-miterlimit:10;stroke-dasharray:none;stroke-opacity:1"
         id="path42"
         inkscape:connector-curvature="0" /></g><g
       id="g44"
       transform="matrix(4.191781,0,0,4.191781,20.958892,-26.602757)"><text
         transform="matrix(1,0,0,-1,47,142.24)"
         style="font-variant:normal;font-weight:normal;font-size:10px;line-height:125%;font-family:Courier;-inkscape-font-specification:Courier;writing-mode:lr-tb;fill:#000000;fill-opacity:1;fill-rule:nonzero;stroke:none"
         id="text46"
         sodipodi:linespacing="125%"><tspan
           x="0 6 12 18"
           y="0"
           sodipodi:role="line"
           id="tspan48"
           style="font-style:normal;font-variant:normal;font-weight:normal;font-stretch:normal;font-size:10.00004482px;line-height:125%;font-family:'DejaVu Sans Mono';-inkscape-font-specification:'DejaVu Sans Mono, Normal';text-align:start;writing-mode:lr-tb;text-anchor:start">bang</tspan></text>
</g><g
       id="g50"
       transform="matrix(4.191781,0,0,4.191781,20.958892,-10.602757)"><path
         d="m 48,133 0,-27 m -3,-45 46,0 0,-17 -46,0 0,17"
         style="fill:none;stroke:#000000;stroke-width:1;stroke-linecap:butt;stroke-linejoin:round;stroke-miterlimit:10;stroke-dasharray:none;stroke-opacity:1"
         id="path52"
         inkscape:connector-curvature="0" /></g><g
       id="g54"
       transform="matrix(4.191781,0,0,4.191781,20.958892,-10.602757)"><path
         d="m 45,61 7,0 0,-2 -7,0 0,2 z"
         style="fill:none;stroke:#000000;stroke-width:1;stroke-linecap:square;stroke-linejoin:miter;stroke-miterlimit:10;stroke-dasharray:none;stroke-opacity:1"
         id="path56"
         inkscape:connector-curvature="0" /></g><g
       id="g58"
       transform="matrix(4.191781,0,0,4.191781,20.958892,-28.202757)"><text
         transform="matrix(1,0,0,-1,47,53.24)"
         style="font-variant:normal;font-weight:normal;font-size:10px;line-height:125%;font-family:Courier;-inkscape-font-specification:Courier;writing-mode:lr-tb;fill:#000000;fill-opacity:1;fill-rule:nonzero;stroke:none"
         id="text60"
         sodipodi:linespacing="125%"><tspan
           x="0 6 12 18 24 30 36"
           y="0"
           sodipodi:role="line"
           id="tspan62"
           style="font-style:normal;font-variant:normal;font-weight:normal;font-stretch:normal;font-size:10.00004482px;line-height:125%;font-family:'DejaVu Sans Mono';-inkscape-font-specification:'DejaVu Sans Mono, Normal';text-align:start;writing-mode:lr-tb;text-anchor:start">PdParty</tspan></text>
</g><g
       id="g64"
       transform="matrix(4.191781,0,0,4.191781,20.958892,-10.602757)"><path
         d="M 48,89 48,61"
         style="fill:none;stroke:#000000;stroke-width:1;stroke-linecap:butt;stroke-linejoin:round;stroke-miterlimit:10;stroke-dasharray:none;stroke-opacity:1"
         id="path66"
         inkscape:connector-curvature="0" /></g></g></svg>