<?xml version="1.0" encoding="utf-8"?>
<!-- Generator: Adobe Illustrator 19.1.0, SVG Export Plug-In . SVG Version: 6.00 Build 0)  -->
<svg version="1.1" id="Layer_1" xmlns="http://www.w3.org/2000/svg" xmlns:xlink="http://www.w3.org/1999/xlink" x="0px" y="0px"
	 viewBox="0 0 792 612" style="enable-background:new 0 0 792 612;" xml:space="preserve">
<style type="text/css">
	.st0{fill:url(#SVGID_1_);}
	.st1{fill:none;stroke:#010101;stroke-width:10;}
	.st2{fill:#010101;stroke:#010101;stroke-width:7;}
	.st3{fill:#010101;}
	.st4{font-family:'Futura-Medium';}
	.st5{font-size:160px;}
</style>
<g>
	
		<linearGradient id="SVGID_1_" gradientUnits="userSpaceOnUse" x1="150.4069" y1="131.7183" x2="804.5283" y2="131.7183" gradientTransform="matrix(-1.346898e-10 1 -1 -1.346898e-10 532.4103 20.0263)">
		<stop  offset="5.406949e-02" style="stop-color:#FFFFFF"/>
		<stop  offset="0.5243" style="stop-color:#000000"/>
	</linearGradient>
	<path class="st0" d="M289,323.3c0,24.9,20.1,45,45,45h133.3c24.9,0,45-20.1,45-45V190c0-24.9-20.1-45-45-45H334
		c-24.9,0-45,20.1-45,45V323.3z"/>
	<path class="st1" d="M289,323.3c0,24.9,20.1,45,45,45h133.3c24.9,0,45-20.1,45-45V190c0-24.9-20.1-45-45-45H334
		c-24.9,0-45,20.1-45,45V323.3z"/>
</g>
<g>
	<rect x="330.3" y="350.2" class="st2" width="50.4" height="16.2"/>
	<g>
		<rect x="330.3" y="144.3" class="st2" width="50.4" height="16.2"/>
		<text transform="matrix(1 0 0 1 338.5684 368.0092)" class="st3 st4 st5">~</text>
	</g>
</g>
</svg>
