<?xml version="1.0" encoding="UTF-8" standalone="no"?>
<!DOCTYPE svg PUBLIC "-//W3C//DTD SVG 1.1//EN" "http://www.w3.org/Graphics/SVG/1.1/DTD/svg11.dtd">
<svg width="100%" height="100%" viewBox="0 0 1024 1024" version="1.1" xmlns="http://www.w3.org/2000/svg" xmlns:xlink="http://www.w3.org/1999/xlink" xml:space="preserve" xmlns:serif="http://www.serif.com/" style="fill-rule:evenodd;clip-rule:evenodd;">
    <g transform="matrix(2.0898,0,0,1.85844,-152.555,-126.374)">
        <g id="background">
            <rect x="73" y="68" width="490" height="551" style="fill:white;"/>
        </g>
    </g>
    <g id="icon" transform="matrix(1.01255,0,0,1,-6779.35,-6688)">
        <g transform="matrix(4.35153,0,0,4.40613,6715.06,6906.28)">
            <path d="M0,133.325C0,158.179 20.147,178.325 45,178.325L178.324,178.325C203.177,178.325 223.324,158.179 223.324,133.325L223.324,0C223.324,-24.853 203.177,-45 178.324,-45L45,-45C20.147,-45 0,-24.853 0,0L0,133.325Z" style="fill:rgb(255,252,252);fill-rule:nonzero;stroke:black;stroke-width:9.08px;"/>
        </g>
        <g transform="matrix(-4.8961,0,0,6.7734,42781,-40612.7)">
            <rect x="7277.09" y="7118.24" width="50.428" height="16.24" style="stroke:black;stroke-width:1.53px;"/>
        </g>
        <g transform="matrix(-4.8961,0,0,6.15801,42780.7,-38413.9)">
            <rect x="7277.04" y="7324.1" width="50.428" height="16.239" style="stroke:black;stroke-width:1.53px;"/>
        </g>
        <g transform="matrix(4.58527,0,0,4.58527,6923.96,7715.78)">
            <text x="0px" y="0px" style="font-family:'Futura-Medium', 'Futura', sans-serif;font-weight:500;font-size:160px;">~</text>
        </g>
    </g>
</svg>
