<?xml version="1.0" encoding="UTF-8" standalone="no"?>
<!-- Generator: Adobe Illustrator 13.0.0, SVG Export Plug-In . SVG Version: 6.00 Build 14948)  -->

<svg
   xmlns:dc="http://purl.org/dc/elements/1.1/"
   xmlns:cc="http://creativecommons.org/ns#"
   xmlns:rdf="http://www.w3.org/1999/02/22-rdf-syntax-ns#"
   xmlns:svg="http://www.w3.org/2000/svg"
   xmlns="http://www.w3.org/2000/svg"
   xmlns:xlink="http://www.w3.org/1999/xlink"
   xmlns:sodipodi="http://sodipodi.sourceforge.net/DTD/sodipodi-0.dtd"
   xmlns:inkscape="http://www.inkscape.org/namespaces/inkscape"
   version="1.1"
   id="Layer_1"
   x="0px"
   y="0px"
   width="480"
   height="320"
   viewBox="0 0 480 320"
   enable-background="new 0 0 500 500"
   xml:space="preserve"
   inkscape:version="0.48.3.1 r9886"
   sodipodi:docname="background.svg"><metadata
   id="metadata8156"><rdf:RDF><cc:Work
       rdf:about=""><dc:format>image/svg+xml</dc:format><dc:type
         rdf:resource="http://purl.org/dc/dcmitype/StillImage" /><dc:title /></cc:Work></rdf:RDF></metadata><defs
   id="defs8154"><linearGradient
     id="linearGradient3829"><stop
       style="stop-color:#0036ff;stop-opacity:1;"
       offset="0"
       id="stop3831" /><stop
       style="stop-color:#000000;stop-opacity:1;"
       offset="1"
       id="stop3833" /></linearGradient><linearGradient
     inkscape:collect="always"
     xlink:href="#linearGradient3829"
     id="linearGradient3835"
     x1="131.5"
     y1="222.5"
     x2="210.5"
     y2="276.5"
     gradientUnits="userSpaceOnUse" /><linearGradient
     gradientTransform="matrix(0.62827903,0,0,0.62827903,92.822952,22.225755)"
     id="SVGID_16_"
     gradientUnits="userSpaceOnUse"
     x1="234.2803"
     y1="358.45901"
     x2="239.1073"
     y2="491.66159"><stop
       offset="0"
       style="stop-color:#ECEFCB"
       id="stop182" /><stop
       offset="1"
       style="stop-color:#B7BA91"
       id="stop184" /></linearGradient><linearGradient
     id="SVGID_15_"
     gradientUnits="userSpaceOnUse"
     x1="209.4111"
     y1="493.68851"
     x2="245.3712"
     y2="206.0153"><stop
       offset="0"
       style="stop-color:#E5802A"
       id="stop165" /><stop
       offset="1"
       style="stop-color:#EBD300"
       id="stop167" /></linearGradient><radialGradient
     id="SVGID_14_"
     cx="234.89751"
     cy="141.2471"
     r="14.0725"
     gradientTransform="matrix(0.76656324,0.05937237,-0.05937237,0.76656324,73.19118,-25.293375)"
     gradientUnits="userSpaceOnUse"><stop
       offset="0.0121"
       style="stop-color:#FFFFFF"
       id="stop140" /><stop
       offset="1"
       style="stop-color:#C3C3C3"
       id="stop142" /></radialGradient><linearGradient
     id="SVGID_13_"
     gradientUnits="userSpaceOnUse"
     x1="247.0732"
     y1="160.957"
     x2="252.0761"
     y2="139.6413"
     gradientTransform="matrix(0.62758792,0.02946629,-0.02946629,0.62758792,101.82845,15.024044)"><stop
       offset="0"
       style="stop-color:#2E2B22"
       id="stop129" /><stop
       offset="1"
       style="stop-color:#5C636A"
       id="stop131" /></linearGradient><linearGradient
     id="SVGID_12_"
     gradientUnits="userSpaceOnUse"
     x1="245.5479"
     y1="162.3564"
     x2="248.2691"
     y2="134.64571"
     gradientTransform="matrix(0.62639419,0.04850314,-0.04850314,0.62639419,104.75711,10.760354)"><stop
       offset="0"
       style="stop-color:#E5802A"
       id="stop120" /><stop
       offset="1"
       style="stop-color:#EBD300"
       id="stop122" /></linearGradient><radialGradient
     id="SVGID_11_"
     cx="270.31451"
     cy="149.873"
     r="15.2679"
     gradientTransform="matrix(1.2151,0.1452,-0.1452,1.2151,-21.514,-87.9268)"
     gradientUnits="userSpaceOnUse"><stop
       offset="0.0121"
       style="stop-color:#FFFFFF"
       id="stop107" /><stop
       offset="1"
       style="stop-color:#C3C3C3"
       id="stop109" /></radialGradient><linearGradient
     id="SVGID_10_"
     gradientUnits="userSpaceOnUse"
     x1="243.02251"
     y1="175.77541"
     x2="245.8082"
     y2="150.0024"
     gradientTransform="matrix(0.62639419,0.04850314,-0.04850314,0.62639419,104.75711,10.760354)"><stop
       offset="0"
       style="stop-color:#FFFFFF"
       id="stop98" /><stop
       offset="1"
       style="stop-color:#C3C3C3"
       id="stop100" /></linearGradient><linearGradient
     id="SVGID_9_"
     gradientUnits="userSpaceOnUse"
     x1="236.62601"
     y1="230.0264"
     x2="242.2308"
     y2="166.0127"
     gradientTransform="matrix(0.62639419,0.04850314,-0.04850314,0.62639419,104.75711,10.760354)"><stop
       offset="0"
       style="stop-color:#E5802A"
       id="stop87" /><stop
       offset="1"
       style="stop-color:#EBD300"
       id="stop89" /></linearGradient><linearGradient
     id="SVGID_8_"
     gradientUnits="userSpaceOnUse"
     x1="240.2197"
     y1="276.25201"
     x2="240.2197"
     y2="127.5594"
     gradientTransform="matrix(0.62639419,0.04850314,-0.04850314,0.62639419,104.75711,10.760354)"><stop
       offset="0"
       style="stop-color:#E5802A"
       id="stop80" /><stop
       offset="1"
       style="stop-color:#EBD300"
       id="stop82" /></linearGradient><linearGradient
     gradientTransform="matrix(0.62827903,0,0,0.62827903,92.822952,22.225755)"
     id="SVGID_7_"
     gradientUnits="userSpaceOnUse"
     x1="232.99899"
     y1="422.90039"
     x2="232.99899"
     y2="127.0979"><stop
       offset="0"
       style="stop-color:#E5802A"
       id="stop63" /><stop
       offset="1"
       style="stop-color:#EBD300"
       id="stop65" /></linearGradient><linearGradient
     id="SVGID_6_"
     gradientUnits="userSpaceOnUse"
     x1="404.5"
     y1="265.7305"
     x2="401.81091"
     y2="226.11189"
     gradientTransform="matrix(-0.6077343,-0.15933156,-0.15933156,0.6077343,438.78863,67.038196)"><stop
       offset="0"
       style="stop-color:#E5802A"
       id="stop54" /><stop
       offset="1"
       style="stop-color:#EBD300"
       id="stop56" /></linearGradient><linearGradient
     id="SVGID_5_"
     gradientUnits="userSpaceOnUse"
     x1="374.94531"
     y1="280.082"
     x2="368.97961"
     y2="192.1873"
     gradientTransform="matrix(-0.6077343,-0.15933156,-0.15933156,0.6077343,438.78863,67.038196)"><stop
       offset="0"
       style="stop-color:#E5802A"
       id="stop47" /><stop
       offset="1"
       style="stop-color:#EBD300"
       id="stop49" /></linearGradient><linearGradient
     id="SVGID_4_"
     gradientUnits="userSpaceOnUse"
     x1="391.02051"
     y1="266.43259"
     x2="388.33151"
     y2="226.8148"
     gradientTransform="matrix(0.62639419,0.04850314,-0.04850314,0.62639419,104.75711,10.760354)"><stop
       offset="0"
       style="stop-color:#E5802A"
       id="stop38" /><stop
       offset="1"
       style="stop-color:#EBD300"
       id="stop40" /></linearGradient><linearGradient
     id="SVGID_3_"
     gradientUnits="userSpaceOnUse"
     x1="361.46481"
     y1="280.78519"
     x2="355.49921"
     y2="192.8913"
     gradientTransform="matrix(0.62639419,0.04850314,-0.04850314,0.62639419,104.75711,10.760354)"><stop
       offset="0"
       style="stop-color:#E5802A"
       id="stop31" /><stop
       offset="1"
       style="stop-color:#EBD300"
       id="stop33" /></linearGradient><linearGradient
     id="SVGID_2_"
     gradientUnits="userSpaceOnUse"
     x1="102.3818"
     y1="438.63959"
     x2="102.3818"
     y2="377.16479"
     gradientTransform="matrix(-0.54641427,0.3100557,0.3100557,0.54641427,258.73794,16.304037)"><stop
       offset="0"
       style="stop-color:#E5802A"
       id="stop24" /><stop
       offset="1"
       style="stop-color:#EBD300"
       id="stop26" /></linearGradient><linearGradient
     id="SVGID_1_"
     gradientUnits="userSpaceOnUse"
     x1="130.4951"
     y1="457.78421"
     x2="130.4951"
     y2="396.31049"><stop
       offset="0"
       style="stop-color:#E5802A"
       id="stop17" /><stop
       offset="1"
       style="stop-color:#EBD300"
       id="stop19" /></linearGradient><linearGradient
     gradientTransform="matrix(0.62827903,0,0,0.62827903,92.822952,22.225755)"
     y2="396.31049"
     x2="130.4951"
     y1="457.78421"
     x1="130.4951"
     gradientUnits="userSpaceOnUse"
     id="linearGradient4039"
     xlink:href="#SVGID_1_"
     inkscape:collect="always" /><pattern
     patternUnits="userSpaceOnUse"
     width="60"
     height="418"
     patternTransform="translate(-225,-8)"
     id="pattern3267"><rect
       y="0"
       x="0"
       height="418"
       width="30"
       id="rect3263"
       style="fill:#4d4d4d;fill-opacity:1;stroke:none" /><rect
       style="fill:#1a1a1a;fill-opacity:1;stroke:none"
       id="rect3265"
       width="30"
       height="418"
       x="30"
       y="0" /></pattern></defs><sodipodi:namedview
   pagecolor="#ffffff"
   bordercolor="#666666"
   borderopacity="1"
   objecttolerance="10"
   gridtolerance="10"
   guidetolerance="10"
   inkscape:pageopacity="0"
   inkscape:pageshadow="2"
   inkscape:window-width="1366"
   inkscape:window-height="706"
   id="namedview8152"
   showgrid="false"
   inkscape:zoom="1"
   inkscape:cx="243.64935"
   inkscape:cy="148.62942"
   inkscape:window-x="0"
   inkscape:window-y="14"
   inkscape:window-maximized="1"
   inkscape:current-layer="Layer_1"
   borderlayer="true"
   inkscape:showpageshadow="false" />
<path
   style="fill:#000000;fill-opacity:1;stroke:none"
   d="m 0,0 480,0 0,320 -480,0 z"
   id="rect3292"
   inkscape:connector-curvature="0" /><path
   style="fill:#333333;fill-opacity:1;stroke:none"
   d="M 480 305.25 L 471.6875 320 L 480 320 L 480 305.25 z "
   id="rect6753" /><rect
   style="fill:none;stroke:none"
   width="60"
   height="550"
   x="-91.965836"
   y="-256.35541"
   id="rect3271"
   transform="matrix(0.8711362,0.49104147,-0.49104147,0.8711362,0,0)" /><path
   style="fill:#333333;fill-opacity:1;stroke:none"
   d="M 32.1875 0 L 0 57.09375 L 0 118.21875 L 66.625 0 L 32.1875 0 z "
   id="rect6717" /><path
   style="fill:#1a1a1a;fill-opacity:1;stroke:none"
   d="M 66.625 0 L 0 118.21875 L 0 179.28125 L 101.0625 0 L 66.625 0 z "
   id="rect6719" /><path
   style="fill:#333333;fill-opacity:1;stroke:none"
   d="M 101.0625 0 L 0 179.28125 L 0 240.34375 L 135.5 0 L 101.0625 0 z "
   id="rect6721" /><path
   style="fill:#1a1a1a;fill-opacity:1;stroke:none"
   d="M 135.5 0 L 0 240.34375 L 0 301.5 L 169.9375 0 L 135.5 0 z "
   id="rect6723" /><path
   style="fill:#333333;fill-opacity:1;stroke:none"
   d="M 169.9375 0 L 0 301.5 L 0 320 L 24 320 L 204.375 0 L 169.9375 0 z "
   id="rect6725" /><path
   style="fill:#1a1a1a;fill-opacity:1;stroke:none"
   d="M 204.375 0 L 24 320 L 58.4375 320 L 238.8125 0 L 204.375 0 z "
   id="rect6727" /><path
   style="fill:#333333;fill-opacity:1;stroke:none"
   d="M 238.8125 0 L 58.4375 320 L 92.84375 320 L 273.25 0 L 238.8125 0 z "
   id="rect6729" /><path
   style="fill:#1a1a1a;fill-opacity:1;stroke:none"
   d="M 273.25 0 L 92.84375 320 L 127.3125 320 L 307.6875 0 L 273.25 0 z "
   id="rect6731" /><path
   style="fill:#333333;fill-opacity:1;stroke:none"
   d="M 307.6875 0 L 127.3125 320 L 161.75 320 L 342.125 0 L 307.6875 0 z "
   id="rect6733" /><path
   style="fill:#1a1a1a;fill-opacity:1;stroke:none"
   d="M 342.125 0 L 161.75 320 L 196.1875 320 L 376.5625 0 L 342.125 0 z "
   id="rect6735" /><path
   style="fill:#333333;fill-opacity:1;stroke:none"
   d="M 376.5625 0 L 196.1875 320 L 230.625 320 L 411 0 L 376.5625 0 z "
   id="rect6737" /><path
   style="fill:#1a1a1a;fill-opacity:1;stroke:none"
   d="M 411 0 L 230.625 320 L 265.0625 320 L 445.4375 0 L 411 0 z "
   id="rect6739" /><path
   style="fill:#333333;fill-opacity:1;stroke:none"
   d="M 445.4375 0 L 265.0625 320 L 299.46875 320 L 479.84375 0 L 445.4375 0 z "
   id="rect6741" /><path
   style="fill:#1a1a1a;fill-opacity:1;stroke:none"
   d="M 479.84375 0 L 299.46875 320 L 333.9375 320 L 480 60.875 L 480 0 L 479.84375 0 z "
   id="rect6743" /><path
   style="fill:#333333;fill-opacity:1;stroke:none"
   d="M 480 60.875 L 333.9375 320 L 368.375 320 L 480 121.96875 L 480 60.875 z "
   id="rect6745" /><path
   style="fill:#1a1a1a;fill-opacity:1;stroke:none"
   d="M 480 121.96875 L 368.375 320 L 402.8125 320 L 480 183.0625 L 480 121.96875 z "
   id="rect6747" /><path
   style="fill:#333333;fill-opacity:1;stroke:none"
   d="M 480 183.0625 L 402.8125 320 L 437.25 320 L 480 244.15625 L 480 183.0625 z "
   id="rect6749" /><path
   style="fill:#1a1a1a;fill-opacity:1;stroke:none"
   d="M 480 244.15625 L 437.25 320 L 471.6875 320 L 480 305.25 L 480 244.15625 z "
   id="rect6751" /><g
   id="max_width__x2F__height"
   display="none"
   style="display:none"
   transform="translate(0,-180)">
	<path
   display="inline"
   d="M 499.001,1 V 499 H 1 V 1 h 498.001 m 1,-1 H 0 V 500 H 500.001 V 0 l 0,0 z"
   id="path8137"
   inkscape:connector-curvature="0"
   style="display:inline" />
</g>


<g
   style="font-size:40px;font-style:normal;font-variant:normal;font-weight:bold;font-stretch:normal;text-align:end;line-height:125%;letter-spacing:0px;word-spacing:0px;text-anchor:end;fill:#ffffff;fill-opacity:1;stroke:none;font-family:Courier 10 Pitch;-inkscape-font-specification:Courier 10 Pitch Bold"
   id="text3257"
   transform="translate(-5,18)"><path
     d="m 372.25999,102.28 -24.08,0 c -0.48,0 -0.88,0.4 -0.88,1.04 l 0,1.88 c 0,0.76 0.4,1.16 0.88,1.16 l 24.08,0 c 0.44,0 0.92,-0.48 0.92,-1.16 l 0,-1.88 c 0,-0.68 -0.32,-1.04 -0.92,-1.04"
     id="path5270"
     inkscape:connector-curvature="0"
     style="fill:#ffffff;stroke:none" /><path
     d="m 381.08249,89.68 0,-14.6 c 0.4,-0.04 0.8,-0.04 1.16,-0.04 4.8,0 7.12,2.400005 7.12,7.32 0,5.039995 -2.28,7.36 -7.16,7.36 -0.36,0 -0.72,0 -1.12,-0.04 m -5.04,4.32 3.68,0 c 0.76,0 1.48,0 2.2,0 2.96,0 5.48,-0.08 7.52,-1.2 3.48,-1.839998 5.52,-5.560005 5.52,-10.4 0,-4.639995 -1.8,-8.160002 -4.88,-10.04 -2.39999,-1.439999 -5.48,-1.52 -9.2,-1.52 -0.4,0 -0.76,0 -1.16,0 l -3.68,0 c -1.68,0 -2.48,0.560002 -2.48,2.16 0,1.399999 0.76,2.16 2.16,2.16 0.12,0 0.2,0 0.32,0 l 0,14.56 c -0.12,0 -0.24,0 -0.32,0 -1.4,0 -2.16,0.720001 -2.16,2.12 0,1.639998 0.84,2.16 2.48,2.16"
     id="path5272"
     inkscape:connector-curvature="0"
     style="fill:#ffffff;stroke:none" /><path
     d="m 405.18499,80.56 0,-5.52 3.28,0 c 2.56,0 3.72,0.760002 3.72,2.76 0,2.159998 -1.36,2.76 -4.36,2.76 l -2.64,0 m 3.44,4.88 4.8,7.36 c 0.48,0.759999 0.8,1.2 2.12,1.2 l 2.4,0 c 1.64,0 2.48,-0.520002 2.48,-2.16 0,-1.439999 -0.76,-2.16 -2.28,-2.16 -0.16,0 -0.4,0 -0.6,0.04 l -3.2,-5.04 c -0.32,-0.48 -0.56,-1 -1.12,-1.32 2.96,-1.039999 4.56,-3.240003 4.56,-6.16 0,-4.119996 -2.8,-6.36 -8.4,-6.36 l -9,0 c -1.64,0 -2.44,0.560002 -2.44,2.16 0,1.399999 0.76,2.16 2.12,2.16 0.12,0 0.2,0 0.32,0 l 0,14.56 c -0.12,0 -0.2,0 -0.32,0 -1.36,0 -2.12,0.720001 -2.12,2.12 0,1.599998 0.8,2.16 2.44,2.16 l 5.04,0 c 1.64,0 2.44,-0.520002 2.44,-2.16 0,-1.399999 -0.72,-2.12 -2.12,-2.12 -0.08,0 -0.2,0 -0.32,0 l 0,-5.16 1.84,0 c 0.52,0 1,0.320001 1.36,0.88"
     id="path5274"
     inkscape:connector-curvature="0"
     style="fill:#ffffff;stroke:none" /><path
     d="m 423.32749,75.16 0,10.12 c 0,6.479994 2.48001,9.32 9.2,9.32 6.48,0 8.96,-2.960006 8.96,-9.32 l 0,-10.12 c 0.12,0 0.2,0 0.32,0 1.4,0 2.12,-0.760001 2.12,-2.16 0,-1.599998 -0.76,-2.16 -2.44,-2.16 l -4.88,0 c -1.68,0 -2.44,0.560002 -2.44,2.16 0,1.399999 0.72,2.16 2.12,2.16 0.12,0 0.2,0 0.32,0 l 0,10.2 c 0,3.479997 -1.08,5 -4.12,5 -3.11999,0 -4.12,-1.560003 -4.12,-5 l 0,-10.2 c 0.12,0 0.2,0 0.32,0 1.4,0 2.16,-0.760001 2.16,-2.16 0,-1.599998 -0.8,-2.16 -2.48,-2.16 l -5.04,0 c -1.68,0 -2.48,0.560002 -2.48,2.16 0,1.399999 0.76,2.16 2.16,2.16 0.12,0 0.2,0 0.32,0"
     id="path5276"
     inkscape:connector-curvature="0"
     style="fill:#ffffff;stroke:none" /><path
     d="m 460.22999,72.92 -3.72,11.08 -3.84,-11.08 c -0.52,-1.479999 -1.28,-2.08 -2.64,-2.08 l -3.04,0 c -1.68,0 -2.48,0.560002 -2.48,2.16 0,1.399999 0.76,2.16 2.16,2.16 0.12,0 0.2,0 0.32,0 l -0.56,14.56 c -0.12,0 -0.24,0 -0.32,0 -1.4,0 -2.12,0.720001 -2.12,2.12 0,1.639998 0.8,2.16 2.44,2.16 l 4.4,0 c 1.64,0 2.44,-0.520002 2.44,-2.16 0,-1.399999 -0.72,-2.12 -2.12,-2.12 -0.08,0 -0.2,0 -0.32,0 l 0.28,-11.92 2.84,8.88 c 0.44,1.359999 1.2,1.88 2.48,1.88 1.28,0 2.04,-0.520001 2.48,-1.88 l 2.88,-8.88 0.28,11.92 c -0.12,0 -0.24,0 -0.32,0 -1.4,0 -2.12,0.720001 -2.12,2.12 0,1.639998 0.8,2.16 2.44,2.16 l 4.4,0 c 1.64,0 2.44,-0.520002 2.44,-2.16 0,-1.399999 -0.72,-2.12 -2.12,-2.12 -0.08,0 -0.2,0 -0.32,0 l -0.56,-14.56 c 0.12,0 0.2,0 0.32,0 1.4,0 2.16,-0.760001 2.16,-2.16 0,-1.599998 -0.8,-2.16 -2.48,-2.16 l -3.04,0 c -1.36,0 -2.12,0.600001 -2.64,2.08"
     id="path5278"
     inkscape:connector-curvature="0"
     style="fill:#ffffff;stroke:none" /><path
     d="m 348.19749,152.28 -24.08,0 c -0.48,0 -0.88,0.4 -0.88,1.04 l 0,1.88 c 0,0.76 0.4,1.16 0.88,1.16 l 24.08,0 c 0.44,0 0.92,-0.48 0.92,-1.16 l 0,-1.88 c 0,-0.68 -0.32,-1.04 -0.92,-1.04"
     id="path5280"
     inkscape:connector-curvature="0"
     style="fill:#ffffff;stroke:none" /><path
     d="m 354.41999,144 11.6,0 c 1.68,0 2.44,-0.64 2.44,-2.16 0,-1.64 -0.8,-2.16 -2.44,-2.16 l -3.28,0 0,-14.56 4.08,0 0.12,3.96 c 0,0.48 0.04,0.72 0.04,0.84 0,0.8 0.76,1.64 1.96,1.64 1.52,0 2.08,-0.76 2.08,-2.32 0,-0.04 0,-0.12 0,-0.16 l -0.2,-5.84 c -0.08,-1.96 -0.16,-2.44 -2.2,-2.44 l -16.8,0 c -2.04,0 -2.12,0.48 -2.2,2.44 l -0.2,5.84 c 0,0.04 0,0.12 0,0.16 0,1.56 0.6,2.32 2.12,2.32 1.24,0 1.96,-0.76 1.96,-2 0,-0.2 0,-0.36 0,-0.48 l 0.12,-3.96 4.08,0 0,14.56 -3.28,0 c -1.64,0 -2.48,0.52 -2.48,2.16 0,1.52 0.8,2.16 2.48,2.16"
     id="path5282"
     inkscape:connector-curvature="0"
     style="fill:#ffffff;stroke:none" /><path
     d="m 387.48249,129.64 -6.4,0 0,-4.48 c 0.12,0 0.2,0 0.32,0 1.4,0 2.16,-0.76 2.16,-2.16 0,-1.6 -0.8,-2.16 -2.48,-2.16 l -5.04,0 c -1.68,0 -2.44,0.56 -2.44,2.16 0,1.4 0.72,2.16 2.12,2.16 0.12,0 0.2,0 0.32,0 l 0,14.56 c -0.12,0 -0.24,0 -0.32,0 -1.4,0 -2.12,0.72 -2.12,2.12 0,1.64 0.8,2.16 2.44,2.16 l 5.04,0 c 1.64,0 2.48,-0.52 2.48,-2.16 0,-1.4 -0.76,-2.12 -2.16,-2.12 -0.08,0 -0.2,0 -0.32,0 l 0,-5.76 6.4,0 0,5.76 c -0.12,0 -0.24,0 -0.32,0 -1.4,0 -2.16,0.72 -2.16,2.12 0,1.64 0.84,2.16 2.48,2.16 l 5.04,0 c 1.64,0 2.4,-0.52 2.4,-2.16 0,-1.4 -0.68,-2.12 -2.08,-2.12 -0.08,0 -0.2,0 -0.32,0 l 0,-14.56 c 0.12,0 0.2,0 0.32,0 1.4,0 2.08,-0.76 2.08,-2.16 0,-1.6 -0.72,-2.16 -2.4,-2.16 l -5.04,0 c -1.68,0 -2.48,0.56 -2.48,2.16 0,1.4 0.76,2.16 2.16,2.16 0.12,0 0.2,0 0.32,0 l 0,4.48"
     id="path5284"
     inkscape:connector-curvature="0"
     style="fill:#ffffff;stroke:none" /><path
     d="m 414.14499,120.88 -11.6,0 c -1.64,0 -2.48,0.48 -2.48,2.12 0,1.64 0.84,2.16 2.48,2.16 l 3.28,0 0,14.56 -3.28,0 c -1.64,0 -2.48,0.48 -2.48,2.12 0,1.64 0.84,2.16 2.48,2.16 l 11.6,0 c 1.68,0 2.44,-0.64 2.44,-2.16 0,-1.64 -0.8,-2.12 -2.44,-2.12 l -3.28,0 0,-14.56 3.28,0 c 1.64,0 2.48,-0.52 2.48,-2.16 0,-1.68 -0.84,-2.12 -2.48,-2.12"
     id="path5286"
     inkscape:connector-curvature="0"
     style="fill:#ffffff;stroke:none" /><path
     d="m 436.92749,135.92 -7.44,-13.56 c -0.8,-1.48 -1.2,-1.52 -2.32,-1.52 -0.04,0 -0.08,0 -0.16,0 l -3.2,0 c -1.6,0 -2.4,0.6 -2.4,2.16 0,1.4 0.76,2.16 2.12,2.16 0.08,0 0.2,0 0.28,0 l 0,14.56 c -0.12,0 -0.2,0 -0.32,0 -1.32,0 -2.08,0.76 -2.08,2.12 0,1.6 0.8,2.16 2.4,2.16 l 5.56,0 c 1.6,0 2.4,-0.56 2.4,-2.16 0,-1.6 -0.8,-2.12 -2.4,-2.12 l -1.08,0 0,-10.6 8.12,14.28 c 0.48,0.84 1.04,0.88 1.96,0.88 l 1.96,0 c 0.96,0 1.08,-0.24 1.08,-1.4 l 0,-17.72 c 0.08,0 0.2,0 0.28,0 1.36,0 2.12,-0.76 2.12,-2.16 0,-1.6 -0.8,-2.16 -2.4,-2.16 l -5.56,0 c -1.6,0 -2.4,0.56 -2.4,2.16 0,1.6 0.8,2.16 2.4,2.16 l 1.08,0 0,10.76"
     id="path5288"
     inkscape:connector-curvature="0"
     style="fill:#ffffff;stroke:none" /><path
     d="m 462.38999,121.48 c -1.92,-0.84 -3.72,-1.28 -5.6,-1.28 -6.67999,0 -11.36,5.36001 -11.36,12.2 0,7.19999 4.60001,12.2 11.48,12.2 4.04,0 7.36,-1.04 8.44,-1.68 0.64,-0.4 0.68,-0.64 0.68,-1.36 0,-0.08 0,-0.16 0,-0.24 l 0,-4.64 c 0.12,0 0.2,0 0.32,0 1.4,0 2.16,-0.76 2.16,-2.16 0,-1.68 -0.84,-2.12 -2.48,-2.12 l -7.04,0 c -1.64,0 -2.44,0.52 -2.44,2.16 0,1.64 0.8,2.16 2.44,2.16 l 2.2,0 0,3.04 c -1.48,0.44 -2.72,0.68 -3.72,0.68 -3.99999,0 -6.4,-2.84001 -6.4,-8.04 0,-5.19999 2.24001,-7.92 6.2,-7.92 2.88,0 4.04,1.2 4.68,3.48 0.36,1.24 0.84,1.84 2.04,1.84 1.64,0 2.04,-0.6 2.04,-2.28 l -0.04,-5.08 c 0,-1.68 -0.56,-2.2 -1.8,-2.2 -0.88,0 -1.32,0.36 -1.8,1.24"
     id="path5290"
     inkscape:connector-curvature="0"
     style="fill:#ffffff;stroke:none" /></g><path
   style="fill:#1a1a1a;fill-opacity:1;stroke:none"
   d="M 0 0 L 0 57.09375 L 32.1875 0 L 0 0 z "
   id="rect6715" /></svg>